<svg width="10" height="7" viewBox="0 0 10 7" fill="none" xmlns="http://www.w3.org/2000/svg">
<path d="M0.920455 7V0.454545H1.89205V1.47727H1.97727C2.11364 1.12784 2.33381 0.856534 2.63778 0.663352C2.94176 0.46733 3.30682 0.369318 3.73295 0.369318C4.16477 0.369318 4.52415 0.46733 4.81108 0.663352C5.10085 0.856534 5.3267 1.12784 5.48864 1.47727H5.55682C5.72443 1.1392 5.97585 0.870739 6.31108 0.671875C6.64631 0.47017 7.0483 0.369318 7.51705 0.369318C8.10227 0.369318 8.58097 0.552557 8.95312 0.919034C9.32528 1.28267 9.51136 1.84943 9.51136 2.61932V7H8.50568V2.61932C8.50568 2.13636 8.37358 1.79119 8.10938 1.58381C7.84517 1.37642 7.53409 1.27273 7.17614 1.27273C6.71591 1.27273 6.35938 1.41193 6.10653 1.69034C5.85369 1.96591 5.72727 2.31534 5.72727 2.73864V7H4.70455V2.51705C4.70455 2.14489 4.58381 1.84517 4.34233 1.6179C4.10085 1.38778 3.78977 1.27273 3.40909 1.27273C3.14773 1.27273 2.90341 1.34233 2.67614 1.48153C2.4517 1.62074 2.26989 1.81392 2.13068 2.06108C1.99432 2.3054 1.92614 2.58807 1.92614 2.90909V7H0.920455Z" fill="black"/>
</svg>
