<?xml version="1.0" standalone="no"?>
<!DOCTYPE svg PUBLIC "-//W3C//DTD SVG 20010904//EN"
 "http://www.w3.org/TR/2001/REC-SVG-20010904/DTD/svg10.dtd">
<svg version="1.0" xmlns="http://www.w3.org/2000/svg"
 width="1280.000000pt" height="1280.000000pt" viewBox="0 0 1280.000000 1280.000000"
 preserveAspectRatio="xMidYMid meet">
<metadata>
Created by potrace 1.14, written by Peter Selinger 2001-2017
</metadata>
<g transform="translate(0.000000,1280.000000) scale(0.100000,-0.100000)"
fill="#000000" stroke="none">
<path d="M4490 10399 c-561 -56 -1003 -238 -1385 -569 -211 -183 -412 -459
-530 -730 l-49 -110 -48 0 -48 0 -2 653 -3 652 -625 0 -625 0 -3 -4187 -2
-4188 650 0 650 0 3 2752 c3 3053 -2 2815 67 3085 150 579 539 1064 1055 1313
348 168 727 216 1142 145 328 -57 617 -208 853 -445 247 -248 380 -544 419
-929 8 -69 11 -1050 11 -3012 l0 -2909 655 0 654 0 4 2838 c3 2037 7 2857 15
2907 60 370 158 631 330 875 93 132 293 330 412 409 388 258 937 357 1472 266
411 -71 818 -303 1031 -590 144 -194 245 -489 276 -809 8 -75 11 -1029 11
-3003 l0 -2893 650 0 651 0 -4 2973 c-3 2722 -5 2985 -20 3132 -49 455 -135
787 -286 1100 -106 221 -217 380 -380 549 -476 489 -1107 736 -1876 736 -795
-1 -1436 -230 -1968 -705 -177 -158 -378 -416 -497 -637 -41 -76 -43 -78 -80
-78 l-38 0 -67 127 c-211 401 -483 705 -835 935 -269 176 -566 281 -940 333
-138 19 -562 28 -700 14z"/>
</g>
</svg>
